<svg xmlns="http://www.w3.org/2000/svg"><rect x = "500.000000" y = "500.000000" width="0.000000" height="0.000000" style="fill:rgb(255,255,255); stroke-width:0; stroke:rgb(0,0,0)" /><line x1 ="119.503830" y1 ="37.097183" x2 ="98.334236" y2 = "0.000000" stroke="#000000" stroke-width="1" /><line x1 ="119.503830" y1 ="37.097183" x2 ="305.987061" y2 = "87.304207" stroke="#000000" stroke-width="1" /><line x1 ="308.878296" y1 ="83.173866" x2 ="305.987061" y2 = "87.304207" stroke="#000000" stroke-width="1" /><line x1 ="324.890381" y1 ="0.000000" x2 ="308.878296" y2 = "83.173866" stroke="#000000" stroke-width="1" /><line x1 ="324.890381" y1 ="0.000000" x2 ="98.334236" y2 = "0.000000" stroke="#000000" stroke-width="1" /><circle cx="226.000000" cy="10.000000" r="9.999900" stroke="black" stroke-width="0" fill="#00ffff" /><circle cx="226.000000" cy="10.000000" r="2" stroke="black" stroke-width="0" fill="#000000" /><line x1 ="396.357117" y1 ="0.000000" x2 ="467.377869" y2 = "76.483871" stroke="#000000" stroke-width="1" /><line x1 ="467.377869" y1 ="76.483871" x2 ="500.000000" y2 = "83.546394" stroke="#000000" stroke-width="1" /><line x1 ="500.000000" y1 ="83.546394" x2 ="500.000000" y2 = "0.000000" stroke="#000000" stroke-width="1" /><line x1 ="500.000000" y1 ="0.000000" x2 ="396.357117" y2 = "0.000000" stroke="#000000" stroke-width="1" /><circle cx="441.000000" cy="20.000000" r="19.104992" stroke="black" stroke-width="0" fill="#00ffff" /><circle cx="441.000000" cy="20.000000" r="2" stroke="black" stroke-width="0" fill="#000000" /><line x1 ="359.548798" y1 ="87.114906" x2 ="308.878296" y2 = "83.173866" stroke="#000000" stroke-width="1" /><line x1 ="467.377869" y1 ="76.483871" x2 ="359.548798" y2 = "87.114906" stroke="#000000" stroke-width="1" /><line x1 ="396.357117" y1 ="0.000000" x2 ="467.377869" y2 = "76.483871" stroke="#000000" stroke-width="1" /><line x1 ="396.357117" y1 ="0.000000" x2 ="324.890381" y2 = "0.000000" stroke="#000000" stroke-width="1" /><line x1 ="324.890381" y1 ="0.000000" x2 ="308.878296" y2 = "83.173866" stroke="#000000" stroke-width="1" /><circle cx="413.000000" cy="46.000000" r="19.104971" stroke="black" stroke-width="0" fill="#00ffff" /><circle cx="413.000000" cy="46.000000" r="2" stroke="black" stroke-width="0" fill="#000000" /><line x1 ="119.503830" y1 ="37.097183" x2 ="120.121826" y2 = "133.504379" stroke="#000000" stroke-width="1" /><line x1 ="120.121826" y1 ="133.504379" x2 ="229.914581" y2 = "178.419601" stroke="#000000" stroke-width="1" /><line x1 ="294.596985" y1 ="114.404015" x2 ="229.914581" y2 = "178.419601" stroke="#000000" stroke-width="1" /><line x1 ="305.024567" y1 ="96.404007" x2 ="294.596985" y2 = "114.404015" stroke="#000000" stroke-width="1" /><line x1 ="305.987061" y1 ="87.304207" x2 ="305.024567" y2 = "96.404007" stroke="#000000" stroke-width="1" /><line x1 ="119.503830" y1 ="37.097183" x2 ="305.987061" y2 = "87.304207" stroke="#000000" stroke-width="1" /><circle cx="198.000000" cy="114.000000" r="47.539455" stroke="black" stroke-width="0" fill="#00ffff" /><circle cx="198.000000" cy="114.000000" r="2" stroke="black" stroke-width="0" fill="#000000" /><line x1 ="102.871445" y1 ="157.298004" x2 ="0.000000" y2 = "158.494186" stroke="#000000" stroke-width="1" /><line x1 ="120.121826" y1 ="133.504379" x2 ="102.871445" y2 = "157.298004" stroke="#000000" stroke-width="1" /><line x1 ="119.503830" y1 ="37.097183" x2 ="120.121826" y2 = "133.504379" stroke="#000000" stroke-width="1" /><line x1 ="119.503830" y1 ="37.097183" x2 ="98.334236" y2 = "0.000000" stroke="#000000" stroke-width="1" /><line x1 ="98.334236" y1 ="0.000000" x2 ="0.000000" y2 = "0.000000" stroke="#000000" stroke-width="1" /><line x1 ="0.000000" y1 ="0.000000" x2 ="0.000000" y2 = "158.494186" stroke="#000000" stroke-width="1" /><circle cx="42.000000" cy="115.000000" r="41.999992" stroke="black" stroke-width="0" fill="#00ffff" /><circle cx="42.000000" cy="115.000000" r="2" stroke="black" stroke-width="0" fill="#000000" /><line x1 ="359.548798" y1 ="87.114906" x2 ="500.000000" y2 = "190.605255" stroke="#000000" stroke-width="1" /><line x1 ="500.000000" y1 ="190.605255" x2 ="500.000000" y2 = "83.546394" stroke="#000000" stroke-width="1" /><line x1 ="467.377869" y1 ="76.483871" x2 ="500.000000" y2 = "83.546394" stroke="#000000" stroke-width="1" /><line x1 ="467.377869" y1 ="76.483871" x2 ="359.548798" y2 = "87.114906" stroke="#000000" stroke-width="1" /><circle cx="420.000000" cy="117.000000" r="11.800389" stroke="black" stroke-width="0" fill="#00ffff" /><circle cx="420.000000" cy="117.000000" r="2" stroke="black" stroke-width="0" fill="#000000" /><line x1 ="305.024567" y1 ="96.404007" x2 ="449.575531" y2 = "243.286438" stroke="#000000" stroke-width="1" /><line x1 ="449.575531" y1 ="243.286438" x2 ="485.691925" y2 = "235.512497" stroke="#000000" stroke-width="1" /><line x1 ="485.691925" y1 ="235.512497" x2 ="500.000000" y2 = "230.533035" stroke="#000000" stroke-width="1" /><line x1 ="500.000000" y1 ="230.533035" x2 ="500.000000" y2 = "190.605255" stroke="#000000" stroke-width="1" /><line x1 ="359.548798" y1 ="87.114906" x2 ="500.000000" y2 = "190.605255" stroke="#000000" stroke-width="1" /><line x1 ="359.548798" y1 ="87.114906" x2 ="308.878296" y2 = "83.173866" stroke="#000000" stroke-width="1" /><line x1 ="308.878296" y1 ="83.173866" x2 ="305.987061" y2 = "87.304207" stroke="#000000" stroke-width="1" /><line x1 ="305.987061" y1 ="87.304207" x2 ="305.024567" y2 = "96.404007" stroke="#000000" stroke-width="1" /><circle cx="406.000000" cy="136.000000" r="11.800497" stroke="black" stroke-width="0" fill="#00ffff" /><circle cx="406.000000" cy="136.000000" r="2" stroke="black" stroke-width="0" fill="#000000" /><line x1 ="294.596985" y1 ="114.404015" x2 ="345.101166" y2 = "304.765900" stroke="#000000" stroke-width="1" /><line x1 ="377.433380" y1 ="293.024200" x2 ="345.101166" y2 = "304.765900" stroke="#000000" stroke-width="1" /><line x1 ="449.575531" y1 ="243.286438" x2 ="377.433380" y2 = "293.024200" stroke="#000000" stroke-width="1" /><line x1 ="305.024567" y1 ="96.404007" x2 ="449.575531" y2 = "243.286438" stroke="#000000" stroke-width="1" /><line x1 ="305.024567" y1 ="96.404007" x2 ="294.596985" y2 = "114.404015" stroke="#000000" stroke-width="1" /><circle cx="343.000000" cy="198.000000" r="25.347624" stroke="black" stroke-width="0" fill="#00ffff" /><circle cx="343.000000" cy="198.000000" r="2" stroke="black" stroke-width="0" fill="#000000" /><line x1 ="102.061195" y1 ="253.717667" x2 ="0.000000" y2 = "269.743805" stroke="#000000" stroke-width="1" /><line x1 ="102.871445" y1 ="157.298004" x2 ="102.061195" y2 = "253.717667" stroke="#000000" stroke-width="1" /><line x1 ="102.871445" y1 ="157.298004" x2 ="0.000000" y2 = "158.494186" stroke="#000000" stroke-width="1" /><line x1 ="0.000000" y1 ="158.494186" x2 ="0.000000" y2 = "269.743805" stroke="#000000" stroke-width="1" /><circle cx="43.000000" cy="201.000000" r="43.000004" stroke="black" stroke-width="0" fill="#00ffff" /><circle cx="43.000000" cy="201.000000" r="2" stroke="black" stroke-width="0" fill="#000000" /><line x1 ="102.061195" y1 ="253.717667" x2 ="111.521347" y2 = "261.601135" stroke="#000000" stroke-width="1" /><line x1 ="111.521347" y1 ="261.601135" x2 ="149.150192" y2 = "272.587646" stroke="#000000" stroke-width="1" /><line x1 ="225.297989" y1 ="246.129517" x2 ="149.150192" y2 = "272.587646" stroke="#000000" stroke-width="1" /><line x1 ="229.914581" y1 ="178.419601" x2 ="225.297989" y2 = "246.129517" stroke="#000000" stroke-width="1" /><line x1 ="120.121826" y1 ="133.504379" x2 ="229.914581" y2 = "178.419601" stroke="#000000" stroke-width="1" /><line x1 ="120.121826" y1 ="133.504379" x2 ="102.871445" y2 = "157.298004" stroke="#000000" stroke-width="1" /><line x1 ="102.871445" y1 ="157.298004" x2 ="102.061195" y2 = "253.717667" stroke="#000000" stroke-width="1" /><circle cx="162.000000" cy="202.000000" r="47.539452" stroke="black" stroke-width="0" fill="#00ffff" /><circle cx="162.000000" cy="202.000000" r="2" stroke="black" stroke-width="0" fill="#000000" /><line x1 ="225.297989" y1 ="246.129517" x2 ="317.540741" y2 = "323.139526" stroke="#000000" stroke-width="1" /><line x1 ="345.101166" y1 ="304.765900" x2 ="317.540741" y2 = "323.139526" stroke="#000000" stroke-width="1" /><line x1 ="294.596985" y1 ="114.404015" x2 ="345.101166" y2 = "304.765900" stroke="#000000" stroke-width="1" /><line x1 ="294.596985" y1 ="114.404015" x2 ="229.914581" y2 = "178.419601" stroke="#000000" stroke-width="1" /><line x1 ="229.914581" y1 ="178.419601" x2 ="225.297989" y2 = "246.129517" stroke="#000000" stroke-width="1" /><circle cx="294.000000" cy="211.000000" r="25.347624" stroke="black" stroke-width="0" fill="#00ffff" /><circle cx="294.000000" cy="211.000000" r="2" stroke="black" stroke-width="0" fill="#000000" /><line x1 ="149.150192" y1 ="272.587646" x2 ="165.187637" y2 = "340.957825" stroke="#000000" stroke-width="1" /><line x1 ="165.187637" y1 ="340.957825" x2 ="312.945251" y2 = "337.263855" stroke="#000000" stroke-width="1" /><line x1 ="317.540741" y1 ="323.139526" x2 ="312.945251" y2 = "337.263855" stroke="#000000" stroke-width="1" /><line x1 ="225.297989" y1 ="246.129517" x2 ="317.540741" y2 = "323.139526" stroke="#000000" stroke-width="1" /><line x1 ="225.297989" y1 ="246.129517" x2 ="149.150192" y2 = "272.587646" stroke="#000000" stroke-width="1" /><circle cx="203.000000" cy="320.000000" r="20.006302" stroke="black" stroke-width="0" fill="#00ffff" /><circle cx="203.000000" cy="320.000000" r="2" stroke="black" stroke-width="0" fill="#000000" /><line x1 ="111.521347" y1 ="261.601135" x2 ="43.974998" y2 = "500.000000" stroke="#000000" stroke-width="1" /><line x1 ="102.061195" y1 ="253.717667" x2 ="111.521347" y2 = "261.601135" stroke="#000000" stroke-width="1" /><line x1 ="102.061195" y1 ="253.717667" x2 ="0.000000" y2 = "269.743805" stroke="#000000" stroke-width="1" /><line x1 ="0.000000" y1 ="269.743805" x2 ="0.000000" y2 = "500.000000" stroke="#000000" stroke-width="1" /><line x1 ="0.000000" y1 ="500.000000" x2 ="43.974998" y2 = "500.000000" stroke="#000000" stroke-width="1" /><circle cx="62.000000" cy="322.000000" r="31.180920" stroke="black" stroke-width="0" fill="#00ffff" /><circle cx="62.000000" cy="322.000000" r="2" stroke="black" stroke-width="0" fill="#000000" /><line x1 ="165.187637" y1 ="340.957825" x2 ="124.457321" y2 = "500.000000" stroke="#000000" stroke-width="1" /><line x1 ="149.150192" y1 ="272.587646" x2 ="165.187637" y2 = "340.957825" stroke="#000000" stroke-width="1" /><line x1 ="111.521347" y1 ="261.601135" x2 ="149.150192" y2 = "272.587646" stroke="#000000" stroke-width="1" /><line x1 ="111.521347" y1 ="261.601135" x2 ="43.974998" y2 = "500.000000" stroke="#000000" stroke-width="1" /><line x1 ="43.974998" y1 ="500.000000" x2 ="124.457321" y2 = "500.000000" stroke="#000000" stroke-width="1" /><circle cx="122.000000" cy="339.000000" r="31.180920" stroke="black" stroke-width="0" fill="#00ffff" /><circle cx="122.000000" cy="339.000000" r="2" stroke="black" stroke-width="0" fill="#000000" /><line x1 ="377.433380" y1 ="293.024200" x2 ="452.109619" y2 = "401.175995" stroke="#000000" stroke-width="1" /><line x1 ="468.231842" y1 ="370.828308" x2 ="452.109619" y2 = "401.175995" stroke="#000000" stroke-width="1" /><line x1 ="485.691925" y1 ="235.512497" x2 ="468.231842" y2 = "370.828308" stroke="#000000" stroke-width="1" /><line x1 ="449.575531" y1 ="243.286438" x2 ="485.691925" y2 = "235.512497" stroke="#000000" stroke-width="1" /><line x1 ="449.575531" y1 ="243.286438" x2 ="377.433380" y2 = "293.024200" stroke="#000000" stroke-width="1" /><circle cx="454.000000" cy="359.000000" r="15.628513" stroke="black" stroke-width="0" fill="#00ffff" /><circle cx="454.000000" cy="359.000000" r="2" stroke="black" stroke-width="0" fill="#000000" /><line x1 ="309.519684" y1 ="362.710876" x2 ="178.305313" y2 = "500.000000" stroke="#000000" stroke-width="1" /><line x1 ="312.945251" y1 ="337.263855" x2 ="309.519684" y2 = "362.710876" stroke="#000000" stroke-width="1" /><line x1 ="165.187637" y1 ="340.957825" x2 ="312.945251" y2 = "337.263855" stroke="#000000" stroke-width="1" /><line x1 ="165.187637" y1 ="340.957825" x2 ="124.457321" y2 = "500.000000" stroke="#000000" stroke-width="1" /><line x1 ="124.457321" y1 ="500.000000" x2 ="178.305313" y2 = "500.000000" stroke="#000000" stroke-width="1" /><circle cx="204.000000" cy="360.000000" r="20.006252" stroke="black" stroke-width="0" fill="#00ffff" /><circle cx="204.000000" cy="360.000000" r="2" stroke="black" stroke-width="0" fill="#000000" /><line x1 ="468.231842" y1 ="370.828308" x2 ="500.000000" y2 = "368.384613" stroke="#000000" stroke-width="1" /><line x1 ="500.000000" y1 ="368.384613" x2 ="500.000000" y2 = "230.533035" stroke="#000000" stroke-width="1" /><line x1 ="485.691925" y1 ="235.512497" x2 ="500.000000" y2 = "230.533035" stroke="#000000" stroke-width="1" /><line x1 ="485.691925" y1 ="235.512497" x2 ="468.231842" y2 = "370.828308" stroke="#000000" stroke-width="1" /><circle cx="485.000000" cy="363.000000" r="6.519191" stroke="black" stroke-width="0" fill="#00ffff" /><circle cx="485.000000" cy="363.000000" r="2" stroke="black" stroke-width="0" fill="#000000" /><line x1 ="452.109619" y1 ="401.175995" x2 ="468.135132" y2 = "500.000000" stroke="#000000" stroke-width="1" /><line x1 ="468.135132" y1 ="500.000000" x2 ="500.000000" y2 = "500.000000" stroke="#000000" stroke-width="1" /><line x1 ="500.000000" y1 ="500.000000" x2 ="500.000000" y2 = "368.384613" stroke="#000000" stroke-width="1" /><line x1 ="468.231842" y1 ="370.828308" x2 ="500.000000" y2 = "368.384613" stroke="#000000" stroke-width="1" /><line x1 ="468.231842" y1 ="370.828308" x2 ="452.109619" y2 = "401.175995" stroke="#000000" stroke-width="1" /><circle cx="486.000000" cy="376.000000" r="6.519212" stroke="black" stroke-width="0" fill="#00ffff" /><circle cx="486.000000" cy="376.000000" r="2" stroke="black" stroke-width="0" fill="#000000" /><line x1 ="309.519684" y1 ="362.710876" x2 ="425.131561" y2 = "500.000000" stroke="#000000" stroke-width="1" /><line x1 ="425.131561" y1 ="500.000000" x2 ="468.135132" y2 = "500.000000" stroke="#000000" stroke-width="1" /><line x1 ="452.109619" y1 ="401.175995" x2 ="468.135132" y2 = "500.000000" stroke="#000000" stroke-width="1" /><line x1 ="377.433380" y1 ="293.024200" x2 ="452.109619" y2 = "401.175995" stroke="#000000" stroke-width="1" /><line x1 ="377.433380" y1 ="293.024200" x2 ="345.101166" y2 = "304.765900" stroke="#000000" stroke-width="1" /><line x1 ="345.101166" y1 ="304.765900" x2 ="317.540741" y2 = "323.139526" stroke="#000000" stroke-width="1" /><line x1 ="317.540741" y1 ="323.139526" x2 ="312.945251" y2 = "337.263855" stroke="#000000" stroke-width="1" /><line x1 ="312.945251" y1 ="337.263855" x2 ="309.519684" y2 = "362.710876" stroke="#000000" stroke-width="1" /><circle cx="412.000000" cy="388.000000" r="25.519588" stroke="black" stroke-width="0" fill="#00ffff" /><circle cx="412.000000" cy="388.000000" r="2" stroke="black" stroke-width="0" fill="#000000" /><line x1 ="309.519684" y1 ="362.710876" x2 ="425.131561" y2 = "500.000000" stroke="#000000" stroke-width="1" /><line x1 ="309.519684" y1 ="362.710876" x2 ="178.305313" y2 = "500.000000" stroke="#000000" stroke-width="1" /><line x1 ="178.305313" y1 ="500.000000" x2 ="425.131561" y2 = "500.000000" stroke="#000000" stroke-width="1" /><circle cx="317.000000" cy="468.000000" r="32.000042" stroke="black" stroke-width="0" fill="#00ffff" /><circle cx="317.000000" cy="468.000000" r="2" stroke="black" stroke-width="0" fill="#000000" /></svg>